<?xml version="1.0" encoding="utf-8"?>
<!DOCTYPE svg PUBLIC "-//W3C//DTD SVG 1.1//EN" "http://www.w3.org/Graphics/SVG/1.1/DTD/svg11.dtd">
<svg xmlns="http://www.w3.org/2000/svg" xmlns:xlink="http://www.w3.org/1999/xlink" version="1.1" baseProfile="full" width="1240" height="600" viewBox="0 0 1240.00 600.00" enable-background="new 0 0 1240.00 600.00" xml:space="preserve">
	<path fill="#000000" fill-opacity="1" stroke-width="0.2" stroke-linejoin="round" d="M 701.875,172.581L 839.912,229.991C 842.462,231.051 843.669,233.978 842.609,236.527L 752.943,452.124C 751.882,454.673 748.956,455.881 746.406,454.82L 626.45,404.931L 718.631,394.109C 721.374,393.787 723.336,391.303 723.014,388.56L 697.678,172.747C 698.939,172.102 700.465,171.995 701.875,172.581 Z M 684.83,148.081C 687.573,147.759 690.057,149.721 690.379,152.463L 717.605,384.37C 717.927,387.113 715.965,389.597 713.222,389.919L 581.237,405.414L 662.618,355.208C 664.968,353.758 665.698,350.678 664.248,348.327L 550.442,163.858L 684.83,148.081 Z M 656.339,346.137C 657.789,348.488 657.059,351.568 654.709,353.018L 527.475,431.513C 525.125,432.963 522.044,432.233 520.594,429.883L 397.995,231.159C 396.546,228.809 397.275,225.729 399.626,224.279L 526.859,145.784C 529.209,144.334 532.29,145.064 533.74,147.414L 656.339,346.137 Z M 584.949,272.68C 577.364,260.386 563.801,254.035 550.327,255.062C 543.799,244.155 531.869,236.853 518.233,236.853C 497.592,236.853 480.858,253.586 480.858,274.228C 480.858,281.525 482.95,288.334 486.566,294.088C 479.523,305.759 479.098,320.863 486.748,333.263C 497.644,350.924 520.794,356.409 538.456,345.513C 544.891,341.543 549.709,335.946 552.708,329.581C 559.56,329.677 566.52,327.888 572.785,324.023C 590.322,313.204 595.768,290.217 584.949,272.68 Z M 504.533,290.527C 508.232,288.246 512.265,286.962 516.318,286.603C 515.571,291.449 515.771,296.455 516.991,301.325C 510.388,301.027 504.401,298.369 499.851,294.174C 501.246,292.818 502.809,291.591 504.533,290.527 Z M 521.442,311.859C 526.287,319.712 533.572,325.141 541.715,327.77C 539.575,331.23 536.619,334.259 532.921,336.541C 520.214,344.38 503.559,340.434 495.72,327.728C 490.876,319.876 490.532,310.516 493.975,302.661C 500.503,308.236 508.975,311.603 518.233,311.603L 521.215,311.485L 521.442,311.859 Z M 491.109,274.228C 491.109,259.247 503.253,247.103 518.233,247.103C 526.911,247.103 534.636,251.177 539.601,257.517C 537.552,258.322 535.546,259.319 533.606,260.516C 527.341,264.381 522.62,269.798 519.631,275.966C 512.597,275.79 505.433,277.585 498.998,281.555C 497.047,282.759 495.245,284.112 493.596,285.591C 491.999,282.135 491.109,278.285 491.109,274.228 Z M 555.608,274.228C 555.608,271.021 555.204,267.909 554.445,264.939C 563.168,265.346 571.546,269.913 576.477,277.906C 584.41,290.764 580.417,307.619 567.559,315.551C 563.874,317.824 559.862,319.118 555.825,319.505C 557.212,310.91 555.636,301.796 550.706,293.805L 550.386,293.295C 553.703,287.712 555.608,281.193 555.608,274.228 Z M 545.307,318.464C 540.032,316.877 535.217,313.702 531.645,309.124C 535.933,307.475 539.84,305.058 543.198,302.042C 545.675,307.299 546.314,313.042 545.307,318.464 Z M 526.926,299.93C 525.737,295.859 525.536,291.628 526.246,287.568C 530.24,288.723 533.977,290.796 537.111,293.706C 534.252,296.478 530.783,298.625 526.926,299.93 Z M 544.219,266.422C 544.96,268.894 545.358,271.514 545.358,274.228C 545.358,278.042 544.571,281.672 543.15,284.965C 539.269,281.646 534.794,279.199 530.034,277.7C 532.191,274.266 535.148,271.26 538.832,268.987C 540.565,267.918 542.372,267.065 544.219,266.422 Z "/>
</svg>
